<svg width="84" height="25" viewBox="0 0 84 25" fill="none" xmlns="http://www.w3.org/2000/svg">
<path d="M2.27122 10.414H8.76566V4.49097H11.0369V19.6405H8.76566V12.5636H2.27122V19.6373H0V4.49097H2.27122V10.414Z" fill="#FAFAFA"></path>
<path d="M41.5476 13.1821L46.2091 19.6373H43.4297L39.1302 13.441H38.7204V19.6421H36.4476V4.49097H39.1096C41.0991 4.49097 42.536 4.86388 43.4201 5.60972C44.3953 6.44719 44.8829 7.55262 44.8829 8.92603C44.9061 9.92782 44.5821 10.9065 43.9665 11.6941C43.3623 12.4645 42.5044 12.9922 41.5476 13.1821ZM38.7204 11.4448H39.4415C41.5931 11.4448 42.6689 10.6175 42.6689 8.96279C42.6689 7.41251 41.6222 6.63738 39.5289 6.63738H38.7204V11.4448Z" fill="#FAFAFA"></path>
<path d="M50.6258 4.49097V17.4925H55.0523V19.6405H48.3546V4.49097H50.6258Z" fill="#FAFAFA"></path>
<path d="M65.5418 6.63738H59.5064V10.2765H65.3655V12.4261H59.5064V17.4893H65.5418V19.6373H57.2335V4.49097H65.5418V6.63738Z" fill="#FAFAFA"></path>
<path d="M67.4566 19.6373L70.6331 3.34985L75.7998 15.1239L81.1411 3.34985L84 19.6373H81.6636L80.2104 10.4939L75.7553 20.3341L71.4257 10.4827L69.8072 19.6373H67.4566Z" fill="#FAFAFA"></path>
<path d="M17.3137 0.00170898L19.639 3.49222L23.6509 3.49062L21.259 6.85488L22.555 10.884L18.7527 9.47276L15.5412 11.9628L15.5825 7.7275L12.3012 5.23748L16.1305 4.03082L17.3137 0.00170898Z" fill="#FAFAFA"></path>
<path d="M18.2731 6.31463L15.5825 7.72745L12.3012 5.23743L18.2731 6.31463Z" fill="#FAFAFA"></path>
<path d="M18.2734 6.31458L18.753 9.47266L15.5416 11.9627L18.2734 6.31458Z" fill="#FAFAFA"></path>
<path d="M21.2593 6.85477L22.5553 10.8839L18.2734 6.31458L21.2593 6.85477Z" fill="#FAFAFA"></path>
<path d="M19.6393 3.49208L23.6513 3.49048L18.2734 6.31453L19.6393 3.49208Z" fill="#FAFAFA"></path>
<path d="M17.3137 0.00170898L18.273 6.31468L16.1305 4.03082L17.3137 0.00170898Z" fill="#FAFAFA"></path>
<path d="M30.2134 0L31.3967 4.02911L35.2276 5.23577L31.9462 7.72579L31.9891 11.9611L28.7776 9.47105L24.9737 10.8839L26.2698 6.85476L23.8763 3.49051H27.8898L30.2134 0Z" fill="#FAFAFA"></path>
<path d="M29.2557 6.31453L26.2698 6.85473L23.8763 3.49048L29.2557 6.31453Z" fill="#FAFAFA"></path>
<path d="M29.2557 6.31458L28.7776 9.47106L24.9737 10.8839L29.2557 6.31458Z" fill="#FAFAFA"></path>
<path d="M31.9467 7.7258L31.9896 11.9611L29.2562 6.31458L31.9467 7.7258Z" fill="#FAFAFA"></path>
<path d="M31.3972 4.0293L35.2281 5.23595L29.2562 6.31475L31.3972 4.0293Z" fill="#FAFAFA"></path>
<path d="M30.2137 0L29.2559 6.31457L27.89 3.49051L30.2137 0Z" fill="#FAFAFA"></path>
<path d="M30.215 24.1221L27.8898 20.6316H23.8763L26.2698 17.2689L24.9722 13.2398L28.7761 14.651L31.9875 12.161L31.9447 16.3963L35.2276 18.8863L31.3967 20.0914L30.215 24.1221Z" fill="#FAFAFA"></path>
<path d="M29.2562 17.8073L31.9452 16.3961L35.2281 18.8861L29.2562 17.8073Z" fill="#FAFAFA"></path>
<path d="M29.2559 17.8074L28.7763 14.6509L31.9877 12.1609L29.2559 17.8074Z" fill="#FAFAFA"></path>
<path d="M26.2699 17.2687L24.9723 13.2396L29.2559 17.8073L26.2699 17.2687Z" fill="#FAFAFA"></path>
<path d="M27.8898 20.6313H23.8763L29.2557 17.8073L27.8898 20.6313Z" fill="#FAFAFA"></path>
<path d="M30.2155 24.1218L29.2562 17.8073L31.3972 20.0911L30.2155 24.1218Z" fill="#FAFAFA"></path>
<path d="M17.3137 24.122L16.1305 20.0929L12.3012 18.8878L15.5825 16.3962L15.5397 12.1609L18.7511 14.6509L22.555 13.2397L21.2574 17.2688L23.6509 20.6315H19.6374L17.3137 24.122Z" fill="#FAFAFA"></path>
<path d="M18.2712 17.809L21.2571 17.2688L23.6506 20.6315L18.2712 17.809Z" fill="#FAFAFA"></path>
<path d="M18.2712 17.8089L18.7508 14.6509L22.5547 13.2396L18.2712 17.8089Z" fill="#FAFAFA"></path>
<path d="M15.5822 16.3963L15.5393 12.161L18.2712 17.8091L15.5822 16.3963Z" fill="#FAFAFA"></path>
<path d="M16.1305 20.0927L12.3012 18.8876L18.2715 17.8088L16.1305 20.0927Z" fill="#FAFAFA"></path>
<path d="M17.3137 24.1218L18.2715 17.8088L19.6374 20.6313L17.3137 24.1218Z" fill="#FAFAFA"></path>
</svg>
