<svg xmlns="http://www.w3.org/2000/svg" fill="none" viewBox="0 0 88 32" height="32" width="88">
<path fill="#FAFAFA" d="M25.3085 12.277V0H28.7737V12.277H25.3085Z"></path>
<path fill="#FAFAFA" d="M38.7117 2.73424H33.9603V5.33854H37.4612V7.92388H33.9603V9.52382H38.7117V12.277H30.4979V0H38.7117V2.73424Z"></path>
<path fill="#FAFAFA" d="M48.4791 0H51.7348V12.277H50.3549L43.5403 6.17505V12.277H40.246V0H41.626L48.4763 6.17505V0H48.4791Z"></path>
<path fill="#FAFAFA" d="M58.2964 0C62.7641 0 65.3946 1.98977 65.3946 5.95306C65.3946 9.76746 63.1993 12.277 58.3157 12.277H53.3191V0H58.2964ZM58.3322 9.52382C60.7534 9.52382 61.8524 8.33266 61.8524 6.13986C61.8524 4.26108 60.7919 2.73695 58.2936 2.73695H56.7787V9.52382H58.3322Z"></path>
<path fill="#FAFAFA" d="M74.9498 2.73424H70.1983V5.33854H73.6993V7.92388H70.1983V9.52382H74.9498V12.277H66.736V0H74.9498V2.73424Z"></path>
<path fill="#FAFAFA" d="M84.7443 0H88.0001V12.277H86.6201L79.8055 6.17505V12.277H76.5112V0H77.8912L84.7415 6.17505V0H84.7443Z"></path>
<path fill="#FAFAFA" d="M21.0526 8.40576C22.741 7.78582 23.7822 6.48638 23.7822 4.33418C23.7822 1.56204 22.08 0 17.8767 0H13.6375V12.277H17.1027V8.85244H17.469L20.116 12.2743H24.2367L21.0526 8.40576ZM17.8188 6.194H17.0999V2.75319H18.0089C19.656 2.75319 20.2235 3.40291 20.2235 4.50202C20.2235 5.76627 19.4853 6.194 17.8188 6.194Z"></path>
<path fill="#FAFAFA" d="M9.39822 0L6.47574 6.60008L3.46511 0H0L5.81191 12.2012H7.10376L12.8799 0H9.39822Z"></path>
<path fill="#FAFAFA" d="M16.5355 28.278H20.433V31.0312H13.0731V17.4033H16.5355V28.278Z"></path>
<path fill="#FAFAFA" d="M20.2843 23.4268C20.2843 19.2225 22.744 17.1597 26.6609 17.1597C30.6356 17.1597 33.0953 19.2794 33.0953 23.3537C33.0953 27.52 30.5419 29.9186 26.603 29.9186C22.8211 29.9186 20.2843 27.7068 20.2843 23.4268ZM29.52 23.4105C29.52 21.0472 28.4981 19.9508 26.6829 19.9508C24.8677 19.9508 23.8458 21.0472 23.8458 23.4295C23.8458 25.8849 24.9256 27.1112 26.6664 27.1112C28.4402 27.1112 29.52 25.828 29.52 23.4105Z"></path>
<path fill="#FAFAFA" d="M44.3911 17.4034V20.1377H40.7387V29.6777H37.2763V20.1377H33.6046V17.4034H44.3911Z"></path>
<path fill="#FAFAFA" d="M54.095 20.135H49.3463V22.7393H52.8473V25.3246H49.3463V26.9246H54.095V29.6777H45.8812V17.4034H54.095V20.135Z"></path>
<path fill="#FAFAFA" d="M63.0394 25.8064C64.7278 25.1865 65.769 23.887 65.769 21.7348C65.769 18.9627 64.0668 17.4006 59.8635 17.4006H55.6243V29.6776H59.0895V26.2558H59.4558L62.1028 29.6776H66.2235L63.0394 25.8064ZM59.8084 23.5946H59.0895V20.1538H59.9984C61.6456 20.1538 62.213 20.8035 62.213 21.9027C62.2103 23.1669 61.4721 23.5946 59.8084 23.5946Z"></path>
<path fill="#FAFAFA" d="M67.2531 29.6777V17.4034H70.7155V29.6777H67.2531Z"></path>
<path fill="#FAFAFA" d="M74.1832 17.4034H77.6676V26.3804C77.6676 29.9891 75.1666 31.3075 71.6822 31.3075L71.583 28.5434C73.4643 28.5434 74.186 27.7394 74.186 25.7767V17.4034H74.1832Z"></path>
</svg>
