<svg width="112" height="112" viewBox="0 0 112 112" fill="none" xmlns="http://www.w3.org/2000/svg">
  <g clip-path="url(#clip0_480_3438)">
    <path d="M27.5424 88.5424H33.8011L30.6715 80.5179L27.5424 88.5424Z" fill="#FAFAFA"/>
    <path d="M40.8373 88.5424H47.096L43.9664 80.5179L40.8373 88.5424Z" fill="#FAFAFA"/>
    <path d="M45.0624 22.1797L43.2496 27.3733H46.8752L45.0624 22.1797Z" fill="#FAFAFA"/>
    <path d="M60.8272 83.1856C60.8272 82.2219 60.5371 81.4987 59.9579 81.0165C59.3781 80.5349 58.4955 80.2933 57.3088 80.2933H53.4843V86.0779H57.3088C58.4955 86.0779 59.3781 85.8373 59.9579 85.3552C60.5371 84.8731 60.8272 84.1499 60.8272 83.1856Z" fill="#FAFAFA"/>
    <path d="M32.3835 24.4507C32.6891 24.1584 32.8416 23.7547 32.8416 23.2384C32.8416 22.7221 32.6891 22.3088 32.3835 21.9963C32.0779 21.6837 31.6331 21.5275 31.0491 21.5275H28.7883V24.8885H31.0491C31.6331 24.8885 32.0779 24.7424 32.3835 24.4507Z" fill="#FAFAFA"/>
    <path d="M31.6805 47.6005H35.3061L33.4933 42.4069L31.6805 47.6005Z" fill="#FAFAFA"/>
    <path d="M107.201 0H79.4667C76.8155 0 74.6667 2.1488 74.6667 4.8C74.6667 7.4512 72.5179 9.6 69.8667 9.6H42.1397C39.4667 9.59787 37.3333 7.46667 37.3333 4.8C37.3333 2.13333 35.1845 0 32.5339 0H4.8C2.1488 0 0 2.14933 0 4.8V107.2C0 109.867 2.13333 112 4.8 112H32.5333C35.1845 112 37.3333 109.867 37.3333 107.2C37.3333 104.533 39.4821 102.4 42.1333 102.4H69.8672C72.5179 102.4 74.6667 104.533 74.6667 107.2C74.6667 109.867 76.816 112 79.4667 112H107.2C109.867 112.006 112 109.867 112 107.2V4.8C112 2.14933 109.851 0 107.201 0ZM67.7824 28.6363C67.8704 28.5547 67.976 28.5141 68.0981 28.5141H70.8069C70.9696 28.5141 71.1024 28.5413 71.2043 28.5952C71.3061 28.6496 71.4181 28.7451 71.5403 28.8805C71.7163 29.2064 71.9915 29.4747 72.3648 29.6848C72.7381 29.8955 73.2373 30.0005 73.8619 30.0005C74.5952 30.0005 75.1584 29.8885 75.5525 29.6645C75.9461 29.4405 76.1435 29.1317 76.1435 28.7381C76.1435 28.4528 76.0416 28.2187 75.8379 28.0352C75.6341 27.8517 75.3083 27.6891 74.8603 27.5467C74.4117 27.4037 73.7669 27.2443 72.9253 27.0677C71.2821 26.7419 70.0533 26.2464 69.2384 25.5808C68.424 24.9157 68.0165 23.9653 68.0165 22.7296C68.0165 21.8875 68.2507 21.1376 68.7189 20.4789C69.1877 19.8203 69.8528 19.3077 70.7152 18.9408C71.5776 18.5744 72.5787 18.3909 73.7195 18.3909C74.9141 18.3909 75.9499 18.5984 76.8256 19.0123C77.7013 19.4267 78.3733 19.9424 78.8421 20.56C79.3104 21.1781 79.5579 21.7856 79.5856 22.3829C79.5856 22.5056 79.5445 22.6107 79.4635 22.6987C79.3819 22.7872 79.28 22.8315 79.1579 22.8315H76.3061C76.0075 22.8315 75.7765 22.7088 75.6139 22.4645C75.5323 22.1797 75.3216 21.9387 74.9824 21.7413C74.6427 21.5451 74.2219 21.4464 73.7195 21.4464C73.1493 21.4464 72.7077 21.5483 72.3957 21.752C72.0832 21.9552 71.9269 22.2544 71.9269 22.648C71.9269 23.0416 72.1307 23.3504 72.5381 23.5744C72.9456 23.7989 73.7056 24.0261 74.8192 24.2571C76.0955 24.488 77.1109 24.7765 77.8645 25.1227C78.6181 25.4688 79.1744 25.9168 79.5344 26.4667C79.8944 27.0171 80.0741 27.7131 80.0741 28.5547C80.0741 29.4784 79.8096 30.2795 79.28 30.9579C78.7504 31.6373 78.0171 32.1568 77.08 32.5163C76.1435 32.8757 75.0704 33.056 73.8619 33.056C72.5451 33.056 71.4245 32.8656 70.5013 32.4859C69.5776 32.1056 68.8784 31.6032 68.4037 30.9787C67.928 30.3541 67.6768 29.6747 67.6496 28.9419C67.6496 28.8192 67.6939 28.7173 67.7824 28.6363ZM67.304 64.6907C67.4533 64.6907 67.5787 64.7413 67.6805 64.8432C67.7824 64.9451 67.8336 65.0709 67.8336 65.2203V67.0736C67.8336 67.2229 67.7824 67.3483 67.6805 67.4501C67.5787 67.552 67.4533 67.6032 67.304 67.6032H61.3157V70.2512H67.9147C68.064 70.2512 68.1899 70.3019 68.2917 70.4037C68.3936 70.5056 68.4443 70.6315 68.4443 70.7803V72.7968C68.4443 72.9467 68.3936 73.0688 68.2917 73.1637C68.1899 73.2587 68.064 73.3061 67.9147 73.3061H58.1381C58.0021 73.3061 57.8837 73.2555 57.7819 73.1536C57.68 73.0517 57.6293 72.9328 57.6293 72.7968V59.5781C57.6293 59.4288 57.6763 59.3035 57.7717 59.2016C57.8667 59.0997 57.9888 59.0485 58.1381 59.0485H67.752C67.9013 59.0485 68.0267 59.0997 68.1285 59.2016C68.2304 59.3035 68.2816 59.4288 68.2816 59.5781V61.5947C68.2816 61.744 68.2304 61.8661 68.1285 61.9611C68.0267 62.0565 67.9013 62.104 67.752 62.104H61.3157V64.6907H67.304ZM53.7792 19.1243C53.7792 18.9749 53.8267 18.8491 53.9221 18.7477C54.0171 18.6459 54.1392 18.5947 54.2885 18.5947H56.5904C56.9024 18.5947 57.1333 18.7237 57.2827 18.9819L62.0896 26.5787V19.1243C62.0896 18.9749 62.1371 18.8491 62.232 18.7477C62.3269 18.6459 62.4491 18.5947 62.5989 18.5947H65.1856C65.3349 18.5947 65.4571 18.6459 65.552 18.7477C65.6469 18.8491 65.6949 18.9749 65.6949 19.1243V32.3227C65.6949 32.4725 65.6469 32.5979 65.552 32.6997C65.4571 32.8011 65.3349 32.8523 65.1856 32.8523H62.8837C62.5712 32.8523 62.3408 32.7232 62.1915 32.4651L57.4048 25.1733V32.3429C57.4048 32.4928 57.3541 32.6149 57.2523 32.7099C57.1504 32.8048 57.0245 32.8523 56.8752 32.8523H54.2885C54.1525 32.8523 54.0341 32.8011 53.9323 32.6997C53.8304 32.5979 53.7792 32.4789 53.7792 32.3429V19.1243ZM53.7488 48.8635C53.8368 48.7819 53.9424 48.7413 54.0645 48.7413H56.7733C56.9365 48.7413 57.0688 48.7685 57.1707 48.8224C57.2725 48.8768 57.3845 48.9723 57.5067 49.1077C57.6832 49.4336 57.9579 49.7019 58.3317 49.912C58.7051 50.1227 59.2037 50.2277 59.8288 50.2277C60.5621 50.2277 61.1253 50.1157 61.5195 49.8917C61.9131 49.6677 62.1099 49.3589 62.1099 48.9653C62.1099 48.68 62.008 48.4459 61.8043 48.2624C61.6005 48.0789 61.2747 47.9163 60.8267 47.7739C60.3787 47.6309 59.7333 47.4715 58.8917 47.2949C57.2485 46.9691 56.0197 46.4736 55.2053 45.808C54.3904 45.1429 53.9829 44.1925 53.9829 42.9568C53.9829 42.1147 54.2171 41.3648 54.6859 40.7061C55.1541 40.0475 55.8192 39.5349 56.6816 39.168C57.544 38.8016 58.5456 38.6181 59.6859 38.6181C60.8811 38.6181 61.9163 38.8256 62.792 39.2395C63.6683 39.6539 64.3403 40.1696 64.8085 40.7872C65.2773 41.4053 65.5248 42.0128 65.552 42.6101C65.552 42.7328 65.5115 42.8379 65.4299 42.9259C65.3483 43.0144 65.2464 43.0587 65.1243 43.0587H62.2731C61.9739 43.0587 61.7435 42.936 61.5803 42.6917C61.4987 42.4069 61.288 42.1659 60.9488 41.9685C60.6091 41.7723 60.1883 41.6736 59.6859 41.6736C59.1157 41.6736 58.6741 41.7755 58.3621 41.9792C58.0496 42.1824 57.8939 42.4816 57.8939 42.8752C57.8939 43.2688 58.0976 43.5776 58.5045 43.8021C58.912 44.0261 59.6725 44.2533 60.7861 44.4843C62.0619 44.7152 63.0773 45.0037 63.8309 45.3499C64.5845 45.696 65.1413 46.144 65.5013 46.6939C65.8608 47.2443 66.0411 47.9403 66.0411 48.7819C66.0411 49.7056 65.776 50.5067 65.2464 51.1851C64.7168 51.8645 63.984 52.384 63.0469 52.7435C62.1099 53.1029 61.0368 53.2832 59.8288 53.2832C58.5115 53.2832 57.3909 53.0928 56.4677 52.7131C55.5445 52.3328 54.8453 51.8304 54.3701 51.2059C53.8944 50.5813 53.6437 49.9019 53.6165 49.1691C53.6165 49.0464 53.6603 48.9445 53.7488 48.8635ZM51.4373 68.4891C51.2336 68.3056 50.9077 68.1429 50.4597 68.0005C50.0117 67.8576 49.3669 67.6981 48.5248 67.5216C46.8816 67.1957 45.6528 66.7003 44.8384 66.0347C44.0235 65.3696 43.6165 64.4192 43.6165 63.1835C43.6165 62.3413 43.8507 61.5915 44.3189 60.9328C44.7872 60.2741 45.4528 59.7616 46.3152 59.3947C47.1771 59.0283 48.1787 58.8448 49.3195 58.8448C50.5141 58.8448 51.5493 59.0523 52.4256 59.4661C53.3013 59.8805 53.9733 60.3963 54.4416 61.0139C54.9104 61.632 55.1579 62.2395 55.1851 62.8368C55.1851 62.9595 55.1445 63.0645 55.0629 63.1525C54.9813 63.2411 54.8795 63.2853 54.7573 63.2853H51.9061C51.6069 63.2853 51.3765 63.1627 51.2133 62.9184C51.1323 62.6336 50.9216 62.3925 50.5819 62.1952C50.2427 61.9989 49.8213 61.9003 49.3195 61.9003C48.7488 61.9003 48.3077 62.0021 47.9952 62.2059C47.6827 62.4091 47.5269 62.7083 47.5269 63.1019C47.5269 63.4955 47.7307 63.8043 48.1381 64.0288C48.5451 64.2528 49.3056 64.48 50.4192 64.7109C51.6955 64.9419 52.7104 65.2304 53.464 65.5765C54.2176 65.9227 54.7744 66.3707 55.1344 66.9205C55.4939 67.4709 55.6741 68.1669 55.6741 69.0085C55.6741 69.9323 55.4091 70.7333 54.8795 71.4117C54.3504 72.0912 53.6171 72.6107 52.68 72.9701C51.7429 73.3296 50.6704 73.5099 49.4619 73.5099C48.1445 73.5099 47.0245 73.3195 46.1013 72.9397C45.1776 72.5595 44.4784 72.0571 44.0032 71.4325C43.528 70.808 43.2768 70.1285 43.2496 69.3957C43.2496 69.2731 43.2933 69.1712 43.3819 69.0901C43.4704 69.0085 43.5755 68.968 43.6976 68.968H46.4069C46.5696 68.968 46.7019 68.9952 46.8037 69.0491C46.9056 69.1035 47.0176 69.1989 47.1397 69.3344C47.3163 69.6603 47.5909 69.9285 47.9648 70.1392C48.3381 70.3499 48.8373 70.4544 49.4619 70.4544C50.1952 70.4544 50.7584 70.3424 51.1525 70.1184C51.5461 69.8944 51.7429 69.5856 51.7429 69.192C51.7429 68.9067 51.6411 68.6725 51.4373 68.4891ZM52.7205 50.4112V52.5701C52.7205 52.72 52.6693 52.8421 52.5675 52.9371C52.4661 53.032 52.3403 53.0795 52.1909 53.0795H42.72C42.584 53.0795 42.4651 53.0288 42.3632 52.9269C42.2613 52.8251 42.2107 52.7061 42.2107 52.5701V39.3312C42.2107 39.1819 42.2613 39.0597 42.3632 38.9643C42.4651 38.8699 42.584 38.8219 42.72 38.8219H45.5712C45.7205 38.8219 45.8427 38.8699 45.9381 38.9643C46.0325 39.0597 46.0805 39.1819 46.0805 39.3312V49.8816H52.1909C52.3403 49.8816 52.4661 49.9328 52.5675 50.0347C52.6693 50.1365 52.7205 50.2619 52.7205 50.4112ZM37.9131 32.2411L42.6587 19.1856C42.7947 18.7915 43.0661 18.5947 43.4736 18.5947H46.6512C47.0581 18.5947 47.3296 18.7915 47.4656 19.1856L52.2112 32.2411C52.2245 32.2821 52.232 32.3429 52.232 32.4245C52.232 32.5333 52.1877 32.6315 52.0992 32.72C52.0107 32.8085 51.9125 32.8523 51.8043 32.8523H49.1563C48.8304 32.8523 48.5995 32.7029 48.4635 32.4043L47.7307 30.4283H42.3941L41.6608 32.4043C41.5248 32.7029 41.2944 32.8523 40.9685 32.8523H38.3205C38.2117 32.8523 38.1131 32.8085 38.0251 32.72C37.9365 32.6315 37.8928 32.5333 37.8928 32.4245C37.8928 32.3429 37.8992 32.2821 37.9131 32.2411ZM40.6427 52.4683C40.656 52.5093 40.6629 52.5701 40.6629 52.6517C40.6629 52.7605 40.6187 52.8587 40.5307 52.9472C40.4421 53.0357 40.344 53.0795 40.2352 53.0795H37.5872C37.2613 53.0795 37.0304 52.9301 36.8949 52.6315L36.1616 50.6555H30.8251L30.0917 52.6315C29.9563 52.9301 29.7253 53.0795 29.3995 53.0795H26.7515C26.6427 53.0795 26.5445 53.0357 26.4565 52.9472C26.368 52.8587 26.3237 52.7605 26.3237 52.6517C26.3237 52.5701 26.3307 52.5093 26.3445 52.4683L31.0901 39.4128C31.2256 39.0187 31.4976 38.8219 31.9045 38.8219H35.0821C35.4896 38.8219 35.7611 39.0187 35.8971 39.4128L40.6427 52.4683ZM24.9595 19.1243C24.9595 18.9749 25.0069 18.8491 25.1019 18.7477C25.1968 18.6459 25.3189 18.5947 25.4683 18.5947H31.0699C32.8619 18.5947 34.264 19.0021 35.2757 19.8165C36.2869 20.6315 36.7931 21.7792 36.7931 23.2592C36.7931 24.2096 36.5723 25.0176 36.1312 25.6827C35.6896 26.3483 35.0821 26.864 34.3083 27.2309L37.0576 32.2005C37.0987 32.2821 37.1189 32.3568 37.1189 32.4245C37.1189 32.5333 37.0784 32.6315 36.9968 32.72C36.9152 32.8085 36.8133 32.8523 36.6912 32.8523H33.8192C33.4256 32.8523 33.1472 32.6688 32.984 32.3024L30.744 27.8827H28.7883V32.3429C28.7883 32.4928 28.7376 32.6149 28.6357 32.7099C28.5339 32.8048 28.408 32.8523 28.2587 32.8523H25.4683C25.3328 32.8523 25.2139 32.8011 25.112 32.6997C25.0101 32.5979 24.9595 32.4789 24.9595 32.3429V19.1243ZM12.3109 19.1243C12.3109 18.9749 12.3584 18.8491 12.4539 18.7477C12.5483 18.6459 12.6709 18.5947 12.8203 18.5947H22.2912C22.4405 18.5947 22.5664 18.6459 22.6683 18.7477C22.7701 18.8491 22.8208 18.9749 22.8208 19.1243V21.2832C22.8208 21.4331 22.7701 21.5552 22.6683 21.6501C22.5664 21.7451 22.4405 21.7925 22.2912 21.7925H16.0587V24.6235H21.8843C22.0331 24.6235 22.1589 24.6747 22.2608 24.7765C22.3627 24.8784 22.4133 25.0037 22.4133 25.1531V27.312C22.4133 27.4619 22.3627 27.584 22.2608 27.6789C22.1589 27.7739 22.0331 27.8213 21.8843 27.8213H16.0587V32.3429C16.0587 32.4789 16.0112 32.5979 15.9163 32.6997C15.8208 32.8011 15.6987 32.8523 15.5493 32.8523H12.8203C12.6843 32.8523 12.5659 32.8011 12.464 32.6997C12.3621 32.5979 12.3109 32.4789 12.3109 32.3429V19.1243ZM12.3109 39.3515C12.3109 39.2021 12.3584 39.0763 12.4539 38.9749C12.5483 38.8731 12.6709 38.8219 12.8203 38.8219H15.6107C15.76 38.8219 15.8859 38.8731 15.9877 38.9749C16.0896 39.0763 16.1403 39.2021 16.1403 39.3515V44.1787H20.9472V39.3515C20.9472 39.2021 20.9979 39.0763 21.0997 38.9749C21.2016 38.8731 21.3269 38.8219 21.4768 38.8219H24.2464C24.3957 38.8219 24.5216 38.8731 24.6235 38.9749C24.7253 39.0763 24.776 39.2021 24.776 39.3515V52.5701C24.776 52.72 24.7253 52.8421 24.6235 52.9371C24.5216 53.032 24.3957 53.0795 24.2464 53.0795H21.4768C21.3269 53.0795 21.2016 53.032 21.0997 52.9371C20.9979 52.8421 20.9472 52.72 20.9472 52.5701V47.5803H16.1403V52.5701C16.1403 52.72 16.0896 52.8421 15.9877 52.9371C15.8859 53.032 15.76 53.0795 15.6107 53.0795H12.8203C12.6709 53.0795 12.5483 53.032 12.4539 52.9371C12.3584 52.8421 12.3109 52.72 12.3109 52.5701V39.3515ZM22.7835 92.8811C22.7835 93.0171 22.7392 93.1253 22.6507 93.2069C22.5616 93.2885 22.4491 93.3291 22.3131 93.3291H21.9451C21.8085 93.3291 21.6992 93.2885 21.6176 93.2069C21.536 93.1253 21.4949 93.0171 21.4949 92.8811V86.7093H13.5995V92.8811C13.5995 93.0171 13.5552 93.1253 13.4667 93.2069C13.3781 93.2885 13.2656 93.3291 13.1291 93.3291H12.7611C12.6245 93.3291 12.5157 93.2885 12.4336 93.2069C12.352 93.1253 12.3109 93.0171 12.3109 92.8811V79.5397C12.3109 79.4043 12.352 79.2923 12.4336 79.2037C12.5157 79.1157 12.6245 79.0715 12.7611 79.0715H13.1291C13.2789 79.0715 13.3952 79.112 13.4768 79.1936C13.5589 79.2752 13.5995 79.3909 13.5995 79.5397V85.4875H21.4949V79.5397C21.4949 79.4043 21.536 79.2923 21.6176 79.2037C21.6992 79.1157 21.8085 79.0715 21.9451 79.0715H22.3131C22.4629 79.0715 22.5787 79.112 22.6608 79.1936C22.7424 79.2752 22.7835 79.3909 22.7835 79.5397V92.8811ZM22.9947 73.1536C22.8928 73.0517 22.8416 72.9328 22.8416 72.7968V65.3829L20.6421 69.416C20.4656 69.7285 20.2277 69.8843 19.9291 69.8843H18.8293C18.5573 69.8843 18.32 69.7285 18.1163 69.416L15.9371 65.3829V72.7968C15.9371 72.9467 15.8859 73.0688 15.784 73.1637C15.6827 73.2587 15.5568 73.3061 15.4075 73.3061H12.8411C12.6917 73.3061 12.5659 73.2587 12.4645 73.1637C12.3627 73.0688 12.3115 72.9467 12.3115 72.7968V59.5781C12.3115 59.4288 12.3627 59.3035 12.4645 59.2016C12.5659 59.0997 12.6917 59.0485 12.8411 59.0485H15.1424C15.4821 59.0485 15.7264 59.1984 15.8757 59.4965L19.3792 65.7701L22.9029 59.4965C23.0523 59.1984 23.2965 59.0485 23.6363 59.0485H25.9376C26.0869 59.0485 26.2128 59.0997 26.3147 59.2016C26.4165 59.3035 26.4672 59.4288 26.4672 59.5781V72.7968C26.4672 72.9467 26.4165 73.0688 26.3147 73.1637C26.2128 73.2587 26.0869 73.3061 25.9376 73.3061H23.3509C23.2149 73.3061 23.0965 73.2555 22.9947 73.1536ZM36.7056 93.2069C36.6235 93.2885 36.528 93.3291 36.4192 93.3291H36.0101C35.8875 93.3291 35.7883 93.2955 35.7136 93.2272C35.6384 93.1595 35.5872 93.0917 35.56 93.0235L34.2917 89.7648H27.0512L25.7835 93.0235C25.7557 93.0917 25.7045 93.1595 25.6299 93.2272C25.5547 93.2955 25.456 93.3291 25.3333 93.3291H24.9243C24.8149 93.3291 24.7195 93.2885 24.6379 93.2069C24.5563 93.1253 24.5152 93.0304 24.5152 92.9216L24.5563 92.6976L29.7307 79.4789C29.84 79.2075 30.0379 79.0715 30.3237 79.0715H31.0192C31.3056 79.0715 31.5035 79.2075 31.6128 79.4789L36.7872 92.6976L36.8283 92.9216C36.8283 93.0304 36.7872 93.1253 36.7056 93.2069ZM35.2859 73.5099C33.3573 73.5099 31.8469 73.0416 30.7541 72.1045C29.6608 71.1675 29.1141 69.7621 29.1141 67.888V59.5781C29.1141 59.4288 29.1616 59.3035 29.2571 59.2016C29.352 59.0997 29.4741 59.0485 29.6235 59.0485H32.4139C32.5632 59.0485 32.6891 59.0997 32.7909 59.2016C32.8928 59.3035 32.9435 59.4288 32.9435 59.5781V67.8475C32.9435 68.6896 33.1435 69.3211 33.5445 69.7419C33.9445 70.1627 34.5184 70.3733 35.2656 70.3733C36.0128 70.3733 36.5861 70.1595 36.9867 69.7317C37.3867 69.304 37.5872 68.6757 37.5872 67.8475V59.5781C37.5872 59.4288 37.6384 59.3035 37.7403 59.2016C37.8421 59.0997 37.9675 59.0485 38.1168 59.0485H40.8869C41.0363 59.0485 41.1621 59.0997 41.264 59.2016C41.3659 59.3035 41.4165 59.4288 41.4165 59.5781V67.888C41.4165 69.7621 40.8736 71.1675 39.7872 72.1045C38.7008 73.0416 37.2005 73.5099 35.2859 73.5099ZM50.0005 93.2069C49.9184 93.2885 49.8229 93.3291 49.7141 93.3291H49.3051C49.1824 93.3291 49.0832 93.2955 49.0085 93.2272C48.9333 93.1595 48.8821 93.0917 48.8549 93.0235L47.5867 89.7648H40.3461L39.0779 93.0235C39.0507 93.0917 38.9995 93.1595 38.9248 93.2272C38.8496 93.2955 38.7509 93.3291 38.6283 93.3291H38.2192C38.1099 93.3291 38.0144 93.2885 37.9328 93.2069C37.8507 93.1253 37.8101 93.0304 37.8101 92.9216L37.8507 92.6976L43.0256 79.4789C43.1344 79.2075 43.3323 79.0715 43.6187 79.0715H44.3141C44.6005 79.0715 44.7979 79.2075 44.9072 79.4789L50.0821 92.6976L50.1232 92.9216C50.1232 93.0304 50.0821 93.1253 50.0005 93.2069ZM62.2587 93.2069C62.1771 93.2885 62.0816 93.3291 61.9723 93.3291H61.7269C61.5227 93.3291 61.3691 93.2853 61.2667 93.1968C61.1648 93.1083 61.0587 92.9696 60.9499 92.7792L57.6976 87.3003H53.4843V92.8811C53.4843 93.0171 53.44 93.1253 53.3515 93.2069C53.2624 93.2885 53.1499 93.3291 53.0139 93.3291H52.6453C52.5093 93.3291 52.4 93.2885 52.3184 93.2069C52.2363 93.1253 52.1957 93.0171 52.1957 92.8811V79.5397C52.1957 79.4043 52.2363 79.2923 52.3184 79.2037C52.4 79.1157 52.5093 79.0715 52.6453 79.0715H57.4112C58.8837 79.0715 60.0363 79.4176 60.8683 80.1104C61.6997 80.8027 62.1157 81.8283 62.1157 83.1856C62.1157 84.2587 61.8496 85.1243 61.3179 85.7829C60.7861 86.4416 60.0224 86.8859 59.0272 87.1168L62.32 92.6976C62.3611 92.7792 62.3813 92.8539 62.3813 92.9216C62.3813 93.0304 62.3408 93.1253 62.2587 93.2069ZM73.7605 92.8811C73.7605 93.0171 73.7163 93.1253 73.6277 93.2069C73.5387 93.2885 73.4261 93.3291 73.2901 93.3291H65.3952C65.2587 93.3291 65.1499 93.2885 65.0677 93.2069C64.9861 93.1253 64.9451 93.0171 64.9451 92.8811V79.5195C64.9451 79.384 64.9861 79.2752 65.0677 79.1936C65.1499 79.112 65.2587 79.0715 65.3952 79.0715H65.7835C65.92 79.0715 66.0293 79.112 66.1109 79.1936C66.1925 79.2752 66.2336 79.384 66.2336 79.5195V92.1072H73.2901C73.44 92.1072 73.5563 92.1477 73.6379 92.2293C73.72 92.3104 73.7605 92.4261 73.7605 92.5755V92.8811ZM72.2224 72.1045C71.1296 71.1675 70.5829 69.7621 70.5829 67.888V59.5781C70.5829 59.4288 70.6304 59.3035 70.7259 59.2016C70.8203 59.0997 70.9429 59.0485 71.0923 59.0485H73.8827C74.032 59.0485 74.1579 59.0997 74.2597 59.2016C74.3611 59.3035 74.4123 59.4288 74.4123 59.5781V67.8475C74.4123 68.6896 74.6123 69.3211 75.0133 69.7419C75.4133 70.1627 75.9872 70.3733 76.7344 70.3733C77.4816 70.3733 78.0544 70.1595 78.4555 69.7317C78.8555 69.304 79.056 68.6757 79.056 67.8475V59.5781C79.056 59.4288 79.1072 59.3035 79.2091 59.2016C79.3109 59.0997 79.4363 59.0485 79.5856 59.0485H82.3557C82.5051 59.0485 82.6309 59.0997 82.7323 59.2016C82.8341 59.3035 82.8853 59.4288 82.8853 59.5781V67.888C82.8853 69.7621 82.3419 71.1675 81.256 72.1045C80.1696 73.0416 78.6693 73.5099 76.7547 73.5099C74.8261 73.5099 73.3157 73.0416 72.2224 72.1045ZM84.8736 92.8811C84.8736 93.0171 84.8293 93.1253 84.7408 93.2069C84.6517 93.2885 84.5392 93.3291 84.4032 93.3291H76.2624C76.1264 93.3291 76.0171 93.2885 75.9355 93.2069C75.8533 93.1253 75.8128 93.0171 75.8128 92.8811V79.5397C75.8128 79.4043 75.8533 79.2923 75.9355 79.2037C76.0171 79.1157 76.1264 79.0715 76.2624 79.0715H84.2395C84.3893 79.0715 84.5056 79.112 84.5872 79.1936C84.6693 79.2752 84.7099 79.3909 84.7099 79.5397V79.8453C84.7099 79.9813 84.6656 80.0901 84.5771 80.1712C84.488 80.2528 84.3755 80.2933 84.2395 80.2933H77.1013V85.4875H83.7893C83.9397 85.4875 84.0555 85.528 84.1371 85.6096C84.2192 85.6912 84.2603 85.8064 84.2603 85.9557V86.2613C84.2603 86.3973 84.2155 86.5056 84.1269 86.5872C84.0384 86.6688 83.9259 86.7093 83.7893 86.7093H77.1013V92.1072H84.4032C84.5531 92.1072 84.6693 92.1477 84.7509 92.2293C84.8325 92.3104 84.8736 92.4261 84.8736 92.5755V92.8811ZM85.6859 73.1637C85.584 73.0688 85.5328 72.9467 85.5328 72.7968V59.5781C85.5328 59.4288 85.584 59.3035 85.6859 59.2016C85.7877 59.0997 85.9131 59.0485 86.0624 59.0485H88.3643C88.7035 59.0485 88.9477 59.1984 89.0976 59.4965L92.6005 65.7701L96.1243 59.4965C96.2736 59.1984 96.5179 59.0485 96.8576 59.0485H99.1589C99.3083 59.0485 99.4341 59.0997 99.536 59.2016C99.6379 59.3035 99.6885 59.4288 99.6885 59.5781V72.7968C99.6885 72.9467 99.6379 73.0688 99.536 73.1637C99.4341 73.2587 99.3083 73.3061 99.1589 73.3061H96.5723C96.4368 73.3061 96.3179 73.2555 96.216 73.1536C96.1141 73.0517 96.0635 72.9328 96.0635 72.7968V65.3829L93.8635 69.416C93.6869 69.7285 93.4491 69.8843 93.1504 69.8843H92.0507C91.7792 69.8843 91.5413 69.7285 91.3381 69.416L89.1584 65.3829V72.7968C89.1584 72.9467 89.1077 73.0688 89.0059 73.1637C88.904 73.2587 88.7781 73.3061 88.6288 73.3061H86.0624C85.9131 73.3061 85.7877 73.2587 85.6859 73.1637ZM99.6891 92.8811C99.6891 93.0171 99.6443 93.1253 99.5557 93.2069C99.4672 93.2885 99.3547 93.3291 99.2187 93.3291H98.8501C98.7136 93.3291 98.6048 93.2885 98.5232 93.2069C98.4411 93.1253 98.4005 93.0171 98.4005 92.8811V81.8416L94.4939 89.4997C94.3707 89.7717 94.1595 89.9072 93.8597 89.9072H93.4096C93.1093 89.9072 92.8981 89.7717 92.7755 89.4997L88.8688 81.8416V92.8811C88.8688 93.0171 88.8277 93.1253 88.7461 93.2069C88.6645 93.2885 88.5552 93.3291 88.4187 93.3291H88.0507C87.9141 93.3291 87.8016 93.2885 87.7131 93.2069C87.6245 93.1253 87.5803 93.0171 87.5803 92.8811V79.5397C87.5803 79.3909 87.6245 79.2752 87.7131 79.1936C87.8016 79.112 87.9141 79.0715 88.0507 79.0715H88.5621C88.7664 79.0715 88.9099 79.16 88.9915 79.3365L93.6347 88.3387L98.2981 79.3365C98.3931 79.16 98.5365 79.0715 98.7275 79.0715H99.2187C99.3685 79.0715 99.4843 79.112 99.5664 79.1936C99.648 79.2752 99.6891 79.3909 99.6891 79.5397V92.8811Z" fill="#FAFAFA"/>
  </g>
  <defs>
    <clipPath id="clip0_480_3438">
      <rect width="112" height="112" fill="white"/>
    </clipPath>
  </defs>
</svg>
